<?xml version="1.0" encoding="utf-8"?>
<!-- Generator: Adobe Illustrator 16.0.0, SVG Export Plug-In . SVG Version: 6.00 Build 0)  -->
<!DOCTYPE svg PUBLIC "-//W3C//DTD SVG 1.0//EN" "http://www.w3.org/TR/2001/REC-SVG-20010904/DTD/svg10.dtd">
<svg version="1.0" id="Layer_1" xmlns="http://www.w3.org/2000/svg" xmlns:xlink="http://www.w3.org/1999/xlink" x="0px" y="0px"
	 width="81px" height="96px" viewBox="0 0 81 96" enable-background="new 0 0 81 96" xml:space="preserve">
<g>
	<defs>
		<rect id="SVGID_1_" x="1" y="1.341" width="78.97" height="93.727"/>
	</defs>
	<clipPath id="SVGID_2_">
		<use xlink:href="#SVGID_1_"  overflow="visible"/>
	</clipPath>
	<path clip-path="url(#SVGID_2_)" fill="#2D2D2D" d="M6.063,56.236c-1.08-2.4-2.198-7.125-3.085-13.174
		c-0.617-4.079,0.771-4.994,2.043-5.125c0.849-0.087,2.661-0.03,4.435,0.061c0.077-2.354,0.269-4.998,0.771-6.307
		c0.463-1.19,2.236-3.858,4.396-6.87c5.668-7.87,12.648-20.053,14.846-20.869c1.272-0.465,10.99-4.112,10.99-4.112
		s9.987,3.646,11.297,4.112c2.313,0.875,11.028,14.229,15.81,22.642c1.39,2.397,2.776,4.147,3.163,5.097
		c0.539,1.31,0.693,3.958,0.771,6.315c1.851-0.095,3.7-0.158,4.626-0.069c1.233,0.131,2.623,1.045,2.005,5.125
		c-0.849,6.188-2.082,10.989-3.162,13.334c3.008,6.531,6.402,12.403,4.396,15.872c-3.471,5.983-12.263,12.421-14.576,14.123
		c-5.167,3.871-5.783,3.739-9.408,6.21c-0.232,0.18-13.343,0.833-14.922,0.833v-0.409c-0.077,0.254-0.116,0.386-0.193,0.386
		c-1.542,0-14.46-0.63-14.691-0.81c-3.586-2.471-4.204-2.339-9.409-6.21c-2.313-1.702-11.067-8.14-14.576-14.123
		C-0.415,68.771,3.095,62.831,6.063,56.236"/>
	<polygon clip-path="url(#SVGID_2_)" fill-rule="evenodd" clip-rule="evenodd" fill="#B3B3B4" points="40.188,81.853 36.834,82.246 
		38.575,92.348 42.146,92.392 43.409,82.202 	"/>
	<path clip-path="url(#SVGID_2_)" fill-rule="evenodd" clip-rule="evenodd" fill="#35485E" d="M40.449,86.601
		c-4.616,0-10.873-4.224-7.247-3.538c2.16,0.354,4.777,0.533,7.269,0.529c2.49,0.004,5.117-0.176,7.276-0.529
		C51.374,82.377,45.065,86.601,40.449,86.601"/>
	<path clip-path="url(#SVGID_2_)" fill-rule="evenodd" clip-rule="evenodd" fill="#B3B3B4" d="M54.039,60.474
		c0.149,2.68-6.672,5.277-8.563,1.315c-1.89-3.961-4.233-0.18-4.233-0.18l-0.899-1.62l2.611-2.702l4.684-0.72l2.071,1.261
		C49.709,57.828,53.996,59.69,54.039,60.474"/>
	<path clip-path="url(#SVGID_2_)" fill-rule="evenodd" clip-rule="evenodd" fill="#243342" d="M39.982,58.548
		c0.805,0.16,0.691-0.227,2.455-1.38c1.036-0.677,3.153-2.272,4.341-2.272c1.329,0,6.815,3.629,7.291,5.291
		c0.475,1.661-4.241,2.397-4.951,1.628c-0.813-0.882,0.033-4.781-2.849-4.545c-2.883,0.237-5.817,2.996-5.817,2.996
		S39.94,58.539,39.982,58.548"/>
	<path clip-path="url(#SVGID_2_)" fill-rule="evenodd" clip-rule="evenodd" fill="#B3B3B4" d="M26.758,60.474
		c-0.149,2.68,6.672,5.277,8.564,1.315c1.891-3.961,4.233-0.18,4.233-0.18l0.9-1.62l-2.611-2.702l-4.683-0.72l-2.072,1.261
		C31.089,57.828,26.802,59.69,26.758,60.474"/>
	<path clip-path="url(#SVGID_2_)" fill-rule="evenodd" clip-rule="evenodd" fill="#243342" d="M40.478,58.548
		c-0.406,0-0.388-0.227-2.151-1.38c-1.036-0.677-3.154-2.272-4.342-2.272c-1.329,0-6.815,3.629-7.291,5.291
		c-0.475,1.661,4.241,2.397,4.951,1.628c0.814-0.882-0.033-4.781,2.849-4.545c2.882,0.237,5.958,2.986,5.958,2.986
		S40.521,58.548,40.478,58.548"/>
	<path clip-path="url(#SVGID_2_)" fill-rule="evenodd" clip-rule="evenodd" fill="#B3B3B4" d="M42.195,60.038
		c0,0-0.914,11.181-1.156,13.354c-0.455,4.107-0.864,3.029-1.305,0c-0.393-2.695-0.979-13.223-0.979-13.223s1.169,0.109,1.694,0.131
		C40.975,60.319,42.195,60.038,42.195,60.038"/>
	<path clip-path="url(#SVGID_2_)" fill-rule="evenodd" clip-rule="evenodd" fill="#FFFFFF" d="M54.14,55.968
		c5.162-1.891,10.291-4.621,12.177-6.695c2.702-2.972,2.341-4.952,1.261-5.764c-1.081-0.811-3.152-2.34-5.403-3.781
		c-0.778-0.498-1.223-0.834-1.716-0.939c-0.936-0.199-2.048,0.435-5.939,2.38c-5.943,2.972-14.07,3.129-14.07,3.129
		s-7.094-0.157-13.039-3.129c-3.892-1.945-5.002-2.58-5.939-2.38c-0.494,0.105-0.938,0.442-1.716,0.939
		c-2.251,1.441-4.322,2.971-5.403,3.781c-1.08,0.812-1.441,2.792,1.26,5.764c1.845,2.028,6.793,4.686,11.839,6.568
		c-8.567,3.895-14.378,11.461-14.378,20.157c0,12.675,13.578,3.896,28.811,3.896c15.23,0,26.351,7.399,26.351-3.995
		C68.233,67.32,62.55,59.88,54.14,55.968 M27.124,53.506c-8.698-3.104-10.518-6.226-10.342-7.118
		c0.184-0.945,1.974-1.766,3.331-2.525c1.633-0.915,2.098-0.691,2.918-0.284c9.514,4.725,14.805,5.878,17.418,6.051
		c2.613-0.173,7.915-1.326,17.429-6.051c0.819-0.407,1.284-0.631,2.917,0.284c1.359,0.759,3.147,1.581,3.331,2.525
		c0.176,0.892-1.643,4.015-10.342,7.118c-0.955,0.342-1.814,0.641-2.622,0.907c-1.396-0.878-2.732-1.467-3.766-1.483
		c-0.609-0.011-1.287,0.033-1.933,0.508c-1.984,1.463-2.683,1.827-4.952,1.914l0.205-0.015c-1.896,0.151-2.912-0.486-4.931-1.899
		c-0.649-0.453-1.323-0.519-1.934-0.508c-1.061,0.018-2.443,0.638-3.883,1.558C29.097,54.2,28.168,53.88,27.124,53.506"/>
	<path clip-path="url(#SVGID_2_)" fill="#B3B3B4" d="M26.758,60.474c0.044-0.783,4.331-2.646,4.331-2.646l2.072-1.261l4.683,0.72
		l2.555,2.644l2.555-2.644l4.684-0.72l2.07,1.261c0,0,4.288,1.862,4.331,2.646c0.149,2.68-6.673,5.277-8.563,1.315
		c-1.15-2.411-2.469-1.955-3.323-1.227c-0.185,2.234-0.903,10.939-1.113,12.829c-0.455,4.108-0.864,3.029-1.305,0
		c-0.34-2.337-0.827-10.558-0.95-12.705c-0.847-0.792-2.248-1.442-3.462,1.103C33.43,65.751,26.608,63.153,26.758,60.474"/>
	<path clip-path="url(#SVGID_2_)" fill="#3A3A3A" d="M40.483,58.556c0.378-0.108,0.661-0.541,1.955-1.388
		c1.035-0.677,3.153-2.272,4.341-2.272c1.329,0,6.816,3.629,7.291,5.291c0.475,1.66-4.241,2.397-4.951,1.628
		c-0.814-0.882,0.033-4.781-2.849-4.545c-2.883,0.237-5.817,2.996-5.817,2.996c-0.135-0.128-3.138-2.764-5.958-2.996
		c-2.882-0.236-2.035,3.663-2.849,4.545c-0.71,0.77-5.426,0.032-4.951-1.628c0.475-1.662,5.962-5.291,7.291-5.291
		c1.188,0,3.306,1.596,4.342,2.272c1.762,1.153,1.745,1.38,2.151,1.38L40.483,58.556z"/>
	<path clip-path="url(#SVGID_2_)" fill="#CDCCCC" d="M68.232,76.433c-0.006,0.138-0.021,0.264-0.04,0.378
		c-0.075,1.309-0.54,6.19-3.446,8.44c-2.333,1.806-3.772,2.682-7.075,4.876c-3.44,2.286-5.696,3.654-6.511,4.05
		c-1.433,0.695-5.508,0.654-10.671,0.892c-5.182-0.222-9.141-0.195-10.579-0.892c-0.814-0.396-3.07-1.764-6.51-4.05
		c-3.303-2.194-4.725-3.091-7.076-4.876c-2.74-2.081-3.153-7.232-3.214-8.448c-0.015-0.106-0.025-0.222-0.032-0.349
		c-0.064-1.479,0.088-6.486,2.81-10.56c0,0,10.929,10.691,15.72,10.603c2.132-0.039,5.384,0.001,8.615,0.001
		c3.304-0.01,6.659-0.052,8.839-0.012c4.791,0.088,16.316-10.612,16.316-10.612C68.101,69.945,68.297,74.952,68.232,76.433"/>
	<path clip-path="url(#SVGID_2_)" fill-rule="evenodd" clip-rule="evenodd" fill="#3A3A3A" d="M40.449,86.601
		c-4.616,0-10.873-4.224-7.247-3.538c2.16,0.354,4.777,0.533,7.269,0.529c2.49,0.004,5.117-0.176,7.276-0.529
		C51.374,82.377,45.065,86.601,40.449,86.601"/>
	<path clip-path="url(#SVGID_2_)" fill="#3A3A3A" d="M41.199,80.129l-1.056-0.001c-10.86-0.018-11.423-0.344-14.166-1.932
		l-0.171-0.099c-3.032-1.752-10.013-6.408-12.236-9.608l0.888-0.616c2.098,3.021,9.043,7.644,11.89,9.289l0.171,0.1
		c2.635,1.525,3.074,1.779,14.152,1.787c11.077-0.008,11.517-0.262,14.152-1.787l0.171-0.1c2.846-1.646,9.79-6.268,11.889-9.289
		l0.888,0.616c-2.223,3.2-9.204,7.855-12.235,9.608l-0.172,0.099C52.622,79.784,52.061,80.11,41.199,80.129L41.199,80.129z"/>
	<path clip-path="url(#SVGID_2_)" fill-rule="evenodd" clip-rule="evenodd" fill="#FFFFFF" d="M28.187,50.498
		c0-1.423,1.253-2.577,2.797-2.577c1.546,0,2.799,1.154,2.799,2.577c0,1.424-1.252,2.577-2.799,2.577
		C29.439,53.075,28.187,51.922,28.187,50.498"/>
	<path clip-path="url(#SVGID_2_)" fill-rule="evenodd" clip-rule="evenodd" fill="#FFFFFF" d="M47.896,50.68
		c0-1.424,1.252-2.578,2.797-2.578c1.546,0,2.799,1.154,2.799,2.578c0,1.422-1.253,2.576-2.799,2.576
		C49.148,53.256,47.896,52.102,47.896,50.68"/>
	<path clip-path="url(#SVGID_2_)" fill-rule="evenodd" clip-rule="evenodd" fill="#3A3A3A" d="M29.553,50.439
		c0-0.899,0.729-1.627,1.628-1.627c0.899,0,1.628,0.728,1.628,1.627c0,0.9-0.729,1.628-1.628,1.628
		C30.282,52.067,29.553,51.34,29.553,50.439"/>
	<path clip-path="url(#SVGID_2_)" fill-rule="evenodd" clip-rule="evenodd" fill="#3A3A3A" d="M48.948,50.543
		c0-0.898,0.729-1.628,1.627-1.628c0.899,0,1.63,0.729,1.63,1.628s-0.73,1.628-1.63,1.628
		C49.677,52.171,48.948,51.441,48.948,50.543"/>
</g>
</svg>
